<svg xmlns="http://www.w3.org/2000/svg" version="1.1" xmlns:xlink="http://www.w3.org/1999/xlink" xmlns:svgjs="http://svgjs.dev/svgjs" width="128" height="128" viewBox="0 0 128 128"><g transform="matrix(0.8046875,0,0,0.8046875,12.588662349065942,10.759219531249997)"><svg viewBox="0 0 91 95" data-background-color="#ffffff" preserveAspectRatio="xMidYMid meet" height="133" width="128" xmlns="http://www.w3.org/2000/svg" xmlns:xlink="http://www.w3.org/1999/xlink"><g id="tight-bounds" transform="matrix(1,0,0,1,-0.07833275500000525,-0.24049999999999727)"><svg viewBox="0 0 91.15666551 95.481" height="95.481" width="91.15666551"><g><svg viewBox="0 0 91.15666551 95.481" height="95.481" width="91.15666551"><g><svg viewBox="0 0 91.15666551 95.481" height="95.481" width="91.15666551"><g id="textblocktransform"><svg viewBox="0 0 91.15666551 95.481" height="95.481" width="91.15666551" id="textblock"><g><svg viewBox="0 0 91.15666551 95.481" height="95.481" width="91.15666551"><g><svg viewBox="0 0 91.15666551 95.481" height="95.481" width="91.15666551"><g><svg version="1.0" xmlns="http://www.w3.org/2000/svg" xmlns:xlink="http://www.w3.org/1999/xlink" x="0" y="0" viewBox="0 0 95.471 100" enable-background="new 0 0 95.471 100" xml:space="preserve" width="91.15666551" height="95.481" class="icon-icon-0" data-fill-palette-color="accent" id="icon-0"><path d="M47.735 0c-0.083 2.825-1.738 13.412-19.799 30.934C10.554 47.797 2.439 49.824 0 50c2.439 0.178 10.554 2.204 27.936 19.066C45.997 86.589 47.652 97.177 47.735 100c0.083-2.823 1.739-13.411 19.798-30.934C84.917 52.204 93.031 50.178 95.471 50c-2.439-0.176-10.554-2.203-27.938-19.066C49.475 13.412 47.819 2.825 47.735 0z" fill="#ffffff" data-fill-palette-color="accent"></path></svg></g></svg></g></svg></g></svg></g></svg></g></svg></g><defs></defs></svg><rect width="91.15666551" height="95.481" fill="none" stroke="none" visibility="hidden"></rect></g></svg></g></svg>