<svg xmlns="http://www.w3.org/2000/svg" version="1.1" xmlns:xlink="http://www.w3.org/1999/xlink" xmlns:svgjs="http://svgjs.dev/svgjs" width="2000" height="207" viewBox="0 0 2000 207"><g transform="matrix(1,0,0,1,-1.2121212121212466,0.027850238125054716)"><svg viewBox="0 0 396 41" data-background-color="#ffffff" preserveAspectRatio="xMidYMid meet" height="207" width="2000" xmlns="http://www.w3.org/2000/svg" xmlns:xlink="http://www.w3.org/1999/xlink"><g id="tight-bounds" transform="matrix(1,0,0,1,0.2400000000000091,-0.005516230739743833)"><svg viewBox="0 0 395.52 41.011032461479466" height="41.011032461479466" width="395.52"><g><svg viewBox="0 0 468.9133456136253 48.62110750045846" height="41.011032461479466" width="395.52"><g><rect width="4.362887215297795" height="48.62110750045846" x="57.60928767765267" y="0" fill="#ffffff" opacity="1" stroke-width="0" stroke="transparent" fill-opacity="1" class="rect-qz-0" data-fill-palette-color="primary" rx="1%" id="qz-0" data-palette-color="#111111"></rect></g><g transform="matrix(1,0,0,1,73.39334561362531,0.12094802860810461)"><svg viewBox="0 0 395.52 48.37921144324225" height="48.37921144324225" width="395.52"><g id="textblocktransform"><svg viewBox="0 0 395.52 48.37921144324225" height="48.37921144324225" width="395.52" id="textblock"><g><svg viewBox="0 0 395.52 48.37921144324225" height="48.37921144324225" width="395.52"><g transform="matrix(1,0,0,1,0,0)"><svg width="395.52" viewBox="1.88 -32.03 266.24 32.57" height="48.37921144324225" data-palette-color="#111111"><path d="M7.79-32.03Q8.62-32.03 8.97-31.65 9.33-31.27 9.33-30.37L9.33-30.37 9.33-18.21Q10.91-20.58 13-21.84 15.09-23.1 17.5-23.1L17.5-23.1Q19.73-23.1 21.36-22.13 23-21.17 23.88-19.36 24.76-17.55 24.76-15.14L24.76-15.14 24.76-3.32 26.76-3.32Q27.59-3.32 27.94-2.94 28.3-2.56 28.3-1.66L28.3-1.66Q28.3-0.76 27.94-0.38 27.59 0 26.76 0L26.76 0 18.85 0Q18.02 0 17.66-0.38 17.31-0.76 17.31-1.66L17.31-1.66Q17.31-2.56 17.66-2.94 18.02-3.32 18.85-3.32L18.85-3.32 21.09-3.32 21.09-14.77Q21.09-16.94 20.09-18.21 19.09-19.48 17.14-19.48L17.14-19.48Q15.06-19.48 13.27-18.29 11.47-17.09 10.4-14.99 9.33-12.89 9.33-10.3L9.33-10.3 9.33-3.32 11.57-3.32Q12.4-3.32 12.76-2.94 13.11-2.56 13.11-1.66L13.11-1.66Q13.11-0.76 12.76-0.38 12.4 0 11.57 0L11.57 0 3.66 0Q2.83 0 2.48-0.38 2.12-0.76 2.12-1.66L2.12-1.66Q2.12-2.56 2.48-2.94 2.83-3.32 3.66-3.32L3.66-3.32 5.66-3.32 5.66-28.71 3.42-28.71Q2.59-28.71 2.23-29.09 1.88-29.47 1.88-30.37L1.88-30.37Q1.88-31.27 2.23-31.65 2.59-32.03 3.42-32.03L3.42-32.03 7.79-32.03ZM45.19-23.1Q48.73-23.1 51.23-21.67 53.73-20.24 55.08-17.71 56.42-15.19 56.61-11.89L56.61-11.89Q56.61-11.06 56.26-10.72 55.91-10.38 55.08-10.38L55.08-10.38 37.4-10.38Q37.57-6.74 39.56-4.87 41.55-3 45.19-3L45.19-3Q47.43-3 49.63-3.58 51.83-4.15 53.49-5.1L53.49-5.1Q53.9-5.32 54.25-5.32L54.25-5.32Q55.1-5.32 55.64-4.03L55.64-4.03Q55.86-3.52 55.86-3.1L55.86-3.1Q55.86-2.12 54.78-1.59L54.78-1.59Q52.9-0.63 50.34-0.05 47.78 0.54 45.19 0.54L45.19 0.54Q41.5 0.54 38.89-0.88 36.28-2.29 34.91-4.96 33.54-7.62 33.54-11.28L33.54-11.28Q33.54-14.77 35.03-17.46 36.52-20.14 39.16-21.62 41.79-23.1 45.19-23.1L45.19-23.1ZM45.19-19.56Q42.19-19.56 40.22-18.03 38.25-16.5 37.64-13.79L37.64-13.79 52.56-13.79Q52.05-16.6 50.21-18.08 48.36-19.56 45.19-19.56L45.19-19.56ZM82.42-23.1Q84.32-23.1 85.98-22.12L85.98-22.12Q86.96-21.53 86.96-20.61L86.96-20.61Q86.96-20.17 86.74-19.58L86.74-19.58Q86.23-18.19 85.32-18.19L85.32-18.19Q84.96-18.19 84.64-18.38L84.64-18.38Q83.44-19.04 82.08-19.04L82.08-19.04Q79.88-19.04 77.66-17.52 75.43-15.99 74.01-13.45 72.58-10.91 72.58-8.06L72.58-8.06 72.58-3.32 80.81-3.32Q81.64-3.32 81.99-2.94 82.34-2.56 82.34-1.66L82.34-1.66Q82.34-0.76 81.99-0.38 81.64 0 80.81 0L80.81 0 65.08 0Q64.25 0 63.9-0.38 63.54-0.76 63.54-1.66L63.54-1.66Q63.54-2.56 63.9-2.94 64.25-3.32 65.08-3.32L65.08-3.32 68.92-3.32 68.92-19.24 65.82-19.24Q64.99-19.24 64.63-19.62 64.28-20 64.28-20.9L64.28-20.9Q64.28-21.8 64.63-22.18 64.99-22.56 65.82-22.56L65.82-22.56 70.8-22.56Q71.63-22.56 71.98-22.18 72.33-21.8 72.33-20.9L72.33-20.9 72.33-15.97Q73.51-18.12 75.17-19.73 76.83-21.34 78.71-22.22 80.59-23.1 82.42-23.1L82.42-23.1ZM104.92-23.1Q108.27-23.1 110.95-21.58 113.64-20.07 115.17-17.37 116.69-14.67 116.69-11.28L116.69-11.28Q116.69-7.89 115.17-5.19 113.64-2.49 110.95-0.98 108.27 0.54 104.92 0.54L104.92 0.54Q101.58 0.54 98.89-0.98 96.21-2.49 94.68-5.19 93.16-7.89 93.16-11.28L93.16-11.28Q93.16-14.67 94.68-17.37 96.21-20.07 98.89-21.58 101.58-23.1 104.92-23.1L104.92-23.1ZM104.92-19.48Q102.56-19.48 100.76-18.44 98.97-17.41 97.99-15.54 97.01-13.67 97.01-11.28L97.01-11.28Q97.01-8.89 97.99-7.02 98.97-5.15 100.76-4.11 102.56-3.08 104.92-3.08L104.92-3.08Q107.29-3.08 109.09-4.11 110.88-5.15 111.86-7.02 112.83-8.89 112.83-11.28L112.83-11.28Q112.83-13.67 111.86-15.54 110.88-17.41 109.09-18.44 107.29-19.48 104.92-19.48L104.92-19.48ZM165.73-28.98Q168.79-28.98 170.97-27.95 173.16-26.93 174.29-25.07 175.43-23.22 175.43-20.75L175.43-20.75Q175.43-17.97 173.62-16.04 171.81-14.11 168.66-13.4L168.66-13.4Q170.03-12.87 170.93-11.67L170.93-11.67Q171.69-10.67 172.23-9.68 172.77-8.69 173.43-7.25L173.43-7.25Q174.11-5.76 174.47-5.08L174.47-5.08Q175.43-3.32 176.67-3.32L176.67-3.32 177.36-3.32Q178.19-3.32 178.54-2.94 178.89-2.56 178.89-1.66L178.89-1.66Q178.89-0.76 178.54-0.38 178.19 0 177.36 0L177.36 0 175.6 0Q174.13 0 173.12-0.77 172.11-1.54 171.15-3.39L171.15-3.39Q170.62-4.47 169.84-6.23L169.84-6.23Q169.1-7.84 168.65-8.73 168.2-9.62 167.57-10.5L167.57-10.5Q166.83-11.52 165.81-12.05 164.78-12.57 163.34-12.57L163.34-12.57 160.02-12.57 160.02-3.32 163.2-3.32Q164.03-3.32 164.38-2.94 164.73-2.56 164.73-1.66L164.73-1.66Q164.73-0.76 164.38-0.38 164.03 0 163.2 0L163.2 0 153.38 0Q152.55 0 152.2-0.38 151.84-0.76 151.84-1.66L151.84-1.66Q151.84-2.56 152.2-2.94 152.55-3.32 153.38-3.32L153.38-3.32 156.36-3.32 156.36-25.66 153.38-25.66Q152.55-25.66 152.2-26.04 151.84-26.42 151.84-27.32L151.84-27.32Q151.84-28.22 152.2-28.6 152.55-28.98 153.38-28.98L153.38-28.98 165.73-28.98ZM160.02-25.66L160.02-15.89 164.98-15.89Q171.57-15.89 171.57-20.75L171.57-20.75Q171.57-23.1 169.91-24.38 168.25-25.66 165.22-25.66L165.22-25.66 160.02-25.66ZM194.96-23.1Q199.55-23.1 201.84-21.04 204.14-18.99 204.14-14.97L204.14-14.97 204.14-5.25Q204.14-3.32 205.75-3.32L205.75-3.32 206.6-3.32Q207.43-3.32 207.79-2.94 208.14-2.56 208.14-1.66L208.14-1.66Q208.14-0.76 207.79-0.38 207.43 0 206.6 0L206.6 0 205.04 0Q203.45 0 202.32-0.79 201.18-1.59 200.84-3.13L200.84-3.13Q198.84-1.37 196.51-0.42 194.17 0.54 191.56 0.54L191.56 0.54Q189.1 0.54 187.2-0.31 185.31-1.15 184.24-2.76 183.16-4.37 183.16-6.59L183.16-6.59Q183.16-10.45 185.92-12.29 188.68-14.14 193.05-14.14L193.05-14.14Q196.93-14.14 200.47-12.89L200.47-12.89 200.47-14.97Q200.47-17.33 199.14-18.44 197.81-19.56 194.86-19.56L194.86-19.56Q193.03-19.56 191.05-19.04 189.07-18.53 187.29-17.63L187.29-17.63Q186.87-17.41 186.53-17.41L186.53-17.41Q185.73-17.41 185.19-18.58L185.19-18.58Q184.92-19.17 184.92-19.56L184.92-19.56Q184.92-20.41 185.82-20.87L185.82-20.87Q187.88-21.95 190.23-22.52 192.59-23.1 194.96-23.1L194.96-23.1ZM193.08-10.69Q190.27-10.69 188.64-9.73 187.02-8.76 187.02-6.67L187.02-6.67Q187.02-4.88 188.25-3.89 189.49-2.91 191.71-2.91L191.71-2.91Q196.57-2.91 200.47-6.93L200.47-6.93 200.47-9.59Q198.81-10.13 196.91-10.41 195-10.69 193.08-10.69L193.08-10.69ZM227.59-23.1Q229.82-23.1 231.45-22.13 233.09-21.17 233.97-19.36 234.85-17.55 234.85-15.14L234.85-15.14 234.85-3.32 236.85-3.32Q237.68-3.32 238.03-2.94 238.39-2.56 238.39-1.66L238.39-1.66Q238.39-0.76 238.03-0.38 237.68 0 236.85 0L236.85 0 228.94 0Q228.11 0 227.75-0.38 227.4-0.76 227.4-1.66L227.4-1.66Q227.4-2.56 227.75-2.94 228.11-3.32 228.94-3.32L228.94-3.32 231.18-3.32 231.18-14.77Q231.18-16.94 230.18-18.21 229.18-19.48 227.23-19.48L227.23-19.48Q225.15-19.48 223.36-18.29 221.56-17.09 220.49-14.99 219.42-12.89 219.42-10.3L219.42-10.3 219.42-3.32 221.66-3.32Q222.49-3.32 222.85-2.94 223.2-2.56 223.2-1.66L223.2-1.66Q223.2-0.76 222.85-0.38 222.49 0 221.66 0L221.66 0 213.75 0Q212.92 0 212.57-0.38 212.21-0.76 212.21-1.66L212.21-1.66Q212.21-2.56 212.57-2.94 212.92-3.32 213.75-3.32L213.75-3.32 215.75-3.32 215.75-19.24 213.26-19.24Q212.43-19.24 212.08-19.62 211.73-20 211.73-20.9L211.73-20.9Q211.73-21.8 212.08-22.18 212.43-22.56 213.26-22.56L213.26-22.56 217.63-22.56Q218.46-22.56 218.82-22.18 219.17-21.8 219.17-20.9L219.17-20.9 219.17-17.97Q220.78-20.46 222.94-21.78 225.1-23.1 227.59-23.1L227.59-23.1ZM266.58-3.32Q267.41-3.32 267.77-2.94 268.12-2.56 268.12-1.66L268.12-1.66Q268.12-0.76 267.77-0.38 267.41 0 266.58 0L266.58 0 258.67 0Q257.84 0 257.49-0.38 257.13-0.76 257.13-1.66L257.13-1.66Q257.13-2.56 257.49-2.94 257.84-3.32 258.67-3.32L258.67-3.32 260.43-3.32 254.3-10.6 249.86-6.69 249.86-3.32 251.64-3.32Q252.47-3.32 252.82-2.94 253.18-2.56 253.18-1.66L253.18-1.66Q253.18-0.76 252.82-0.38 252.47 0 251.64 0L251.64 0 243.49 0Q242.66 0 242.3-0.38 241.95-0.76 241.95-1.66L241.95-1.66Q241.95-2.56 242.3-2.94 242.66-3.32 243.49-3.32L243.49-3.32 246.2-3.32 246.2-28.71 243-28.71Q242.17-28.71 241.81-29.09 241.46-29.47 241.46-30.37L241.46-30.37Q241.46-31.27 241.81-31.65 242.17-32.03 243-32.03L243-32.03 248.32-32.03Q249.15-32.03 249.5-31.65 249.86-31.27 249.86-30.37L249.86-30.37 249.86-11.04 259.16-19.24 257.43-19.24Q256.6-19.24 256.24-19.62 255.89-20 255.89-20.9L255.89-20.9Q255.89-21.8 256.24-22.18 256.6-22.56 257.43-22.56L257.43-22.56 265.58-22.56Q266.41-22.56 266.76-22.18 267.12-21.8 267.12-20.9L267.12-20.9Q267.12-20 266.76-19.62 266.41-19.24 265.58-19.24L265.58-19.24 264.14-19.24 256.96-12.92 265.17-3.32 266.58-3.32Z" opacity="1" transform="matrix(1,0,0,1,0,0)" fill="#ffffff" class="wordmark-text-0" data-fill-palette-color="primary" id="text-0"></path></svg></g></svg></g></svg></g></svg></g><g transform="matrix(1,0,0,1,0,0.12094802860810461)"><svg viewBox="0 0 46.18811695697781 48.37921144324225" height="48.37921144324225" width="46.18811695697781"><g><svg version="1.0" xmlns="http://www.w3.org/2000/svg" xmlns:xlink="http://www.w3.org/1999/xlink" x="0" y="0" viewBox="0 0 95.471 100" enable-background="new 0 0 95.471 100" xml:space="preserve" width="46.18811695697781" height="48.37921144324225" class="icon-icon-0" data-fill-palette-color="accent" id="icon-0"><path d="M47.735 0c-0.083 2.825-1.738 13.412-19.799 30.934C10.554 47.797 2.439 49.824 0 50c2.439 0.178 10.554 2.204 27.936 19.066C45.997 86.589 47.652 97.177 47.735 100c0.083-2.823 1.739-13.411 19.798-30.934C84.917 52.204 93.031 50.178 95.471 50c-2.439-0.176-10.554-2.203-27.938-19.066C49.475 13.412 47.819 2.825 47.735 0z" fill="#ffffff" data-fill-palette-color="accent"></path></svg></g></svg></g></svg></g><defs></defs></svg><rect width="395.52" height="41.011032461479466" fill="none" stroke="none" visibility="hidden"></rect></g></svg></g></svg>